<svg
   version="1.1"
   id="svg1"
  
  
   viewBox="0 0 932.50855 1572.7482"
  
  
  
  
  
  
  
   xmlns="http://www.w3.org/2000/svg"
  >
  <g
    
    
     id="g1"
     transform="translate(-2500.4392,-128.46234)">
    <g
       id="g9"
       transform="translate(126.61652,81.261354)">
      <g
         id="g4-3-8"
         transform="matrix(0.93905716,0,0,1.1046882,378.05496,55.76055)"
         style="stroke:#ffffff;stroke-width:5.06928;stroke-dasharray:none;stroke-opacity:1"
        
        
        >
        <rect
           style="fill:#ffffff;fill-opacity:1;stroke:#ffffff;stroke-width:5.06928;stroke-dasharray:none;stroke-opacity:1"
           id="rect2-8-8"
           width="85.040955"
           height="87.875656"
           x="2585.7175"
           y="994.97919" />
        <path
           style="fill:#000000;stroke:#ffffff;stroke-width:5.06928;stroke-dasharray:none;stroke-opacity:1"
           d="m 2234.1445,1153.6999 c 0.747,-4.1749 4.9449,-12.3404 8.2202,-15.9895 3.6925,-4.1138 8.8916,-7.4657 14.9727,-9.6528 l 4.6669,-1.6786 h 257.6363 257.6363 l 4.6669,1.6786 c 6.081,2.1871 11.2801,5.539 14.9727,9.6528 3.2753,3.6491 7.4731,11.8146 8.2201,15.9895 l 0.4793,2.6785 h -285.9753 -285.9753 z m 340.6461,-87.141 c 0,-31.018 0.2881,-51.5463 0.7544,-54.3936 1.767,-10.7914 8.507,-23.01661 16.85,-30.56341 10.6958,-9.6749 23.1508,-14.4655 37.6795,-14.4927 15.781,-0.029 29.1444,5.6268 39.8995,16.8882 4.9778,5.2123 6.4171,7.2458 9.6606,13.6499 5.1795,10.22621 5.5054,12.68721 6.1227,46.23351 0.5097,27.6938 0.6704,30.3817 2.0904,34.9736 4.4116,14.2656 13.4393,26.9311 25.0023,35.0771 l 3.4744,2.4477 h -70.7696 -70.7696 z m 65.7124,-22.4775 c 4.9239,-2.2337 9.2387,-6.3669 11.928,-11.4259 1.8069,-3.3991 2.0064,-4.4844 2.0064,-10.9171 0,-6.4325 -0.1995,-7.5178 -2.0064,-10.9169 -2.5623,-4.82 -6.6537,-8.8649 -11.4837,-11.35321 -3.3566,-1.7292 -4.6226,-1.9654 -10.6571,-1.9886 -8.1505,-0.031 -11.6974,1.2781 -17.15,6.33181 -13.8239,12.8128 -8.613,35.7319 9.4544,41.5834 4.6828,1.5166 13.0172,0.9053 17.9084,-1.3135 z m -13.8217,-7.6264 c -7.5124,-2.3769 -11.5288,-7.5039 -11.5288,-14.7166 0,-8.6617 6.3478,-14.8616 15.2298,-14.8746 8.4151,-0.012 14.7072,6.3752 14.6524,14.8746 -0.038,5.9169 -3.0797,10.9184 -8.2514,13.5684 -2.4274,1.2438 -7.8514,1.8603 -10.102,1.1482 z"
           id="path1-8-9-2" />
      </g>
      <g
         id="g10"
         transform="matrix(1.2085086,0,0,1.3354897,-561.04815,-486.56742)">
        <path
           style="fill:#000000;stroke:#ffffff;stroke-width:2.80102;stroke-dasharray:none;stroke-opacity:1"
           d="m 2576.8822,1572.5501 c -14.86,-7.5012 -14.9899,-24.2015 -0.2894,-37.2422 l 6.8659,-6.0909 -4.5213,-4.6109 c -3.8623,-3.9387 -4.3897,-5.47 -3.6174,-10.504 0.6105,-3.9788 2.6211,-7.4436 6.1902,-10.6665 l 5.2859,-4.7735 -4.635,-3.8681 c -11.8872,-9.9203 -11.8238,-30.6659 0.1346,-43.6699 6.6918,-7.2775 15.1725,-10.4651 27.9479,-10.5048 9.4462,-0.03 11.513,-0.5219 12.8458,-3.0612 3.6918,-7.0349 23.7677,-13.5267 31.9407,-10.3284 3.33,1.3031 3.1611,9.072 -0.2623,12.0705 -4.62,4.0463 -7.7438,4.4114 -16.9105,1.9765 -6.7875,-1.8028 -9.3408,-1.9148 -11.0322,-0.4833 -1.8163,1.5371 -1.1693,2.492 3.7041,5.4672 7.1913,4.3904 11.0729,10.7949 12.364,20.3996 1.4168,10.5415 -5.0084,23.4688 -14.8178,29.8127 -10.4937,6.7866 -17.8439,8.4236 -28.2492,6.2918 -7.6798,-1.5734 -8.8665,-1.4576 -10.6633,1.0413 -3.2376,4.5026 2.482,7.9672 14.9171,9.0357 35.7754,3.0744 39.6035,3.6711 43.7362,6.8177 16.3681,12.4623 -2.213,42.1108 -33.2068,52.9851 -12.4064,4.3528 -28.9985,4.3113 -37.7263,-0.095 z m 51.9398,-13.4489 c 9.6335,-4.8063 14.6327,-10.5125 14.6327,-16.7017 0,-7.3482 -3.2513,-8.5266 -28.6737,-10.3939 l -23.5968,-1.7332 -4.681,4.5129 c -9.1613,8.8321 -4.9488,24.2897 7.7155,28.3116 8.1807,2.5979 25.3648,0.6136 34.6033,-3.9957 z m -8.7668,-64.1776 c 5.9636,-6.0816 7.0938,-13.4456 3.9759,-25.9043 -5.8097,-23.2145 -23.7605,-32.4505 -31.3538,-16.1323 -5.1976,11.17 -0.6094,32.4391 8.887,41.1968 7.2082,6.6474 12.5575,6.8904 18.4909,0.8398 z m 68.5244,34.5975 c -14.0119,-2.1198 -25.39,-10.882 -30.774,-23.6988 -1.3258,-3.1565 -2.4008,-10.7648 -2.4813,-17.5623 -0.1249,-10.5535 0.4858,-13.2944 5.0902,-22.832 8.1345,-16.8504 20.4074,-24.5024 39.6518,-24.7227 11.4163,-0.1305 19.7219,2.5359 25.8794,8.3086 4.3868,4.1126 9.4843,14.7072 9.5333,19.8137 l 0.035,3.5802 h -31.9863 -31.9866 v 5.2802 c 0,13.6469 8.4204,28.3921 19.5039,34.1538 10.643,5.5327 27.0721,2.9906 38.0676,-5.8901 11.8745,-9.5908 8.5672,1.3665 -3.738,12.3842 -10.7509,9.6261 -22.8298,13.2979 -36.7942,11.1852 z m 27.3369,-63.8759 c -7.7709,-25.6905 -33.713,-27.7667 -41.8711,-3.3508 l -2.3157,6.931 h 22.6349 22.6352 z m 149.6868,64.5858 c -10.4023,-2.2287 -13.0664,-13.4142 -13.0664,-54.8581 v -30.0151 h -5.4611 c -3.0037,0 -5.4611,-0.628 -5.4611,-1.3955 0,-1.9429 25.8093,-25.6543 27.924,-25.6543 1.1025,0 1.722,4.2923 1.722,11.9338 v 11.9337 h 13.2627 c 7.8016,0 13.2627,0.6552 13.2627,1.5912 0,0.936 -5.4611,1.5911 -13.2627,1.5911 h -13.2627 v 29.039 c 0,15.9713 0.7376,31.7154 1.6285,34.987 2.658,9.7601 10.4647,11.9667 18.3623,5.19 9.0861,-7.7966 11.5755,-2.6585 2.6039,5.3744 -9.376,8.395 -19.6406,12.1298 -28.2607,10.2828 z m 110.4275,-0.6435 c -20.99,-4.2611 -32.6116,-21.1421 -31.0995,-45.1728 1.1504,-18.2767 9.2812,-30.9842 25.2276,-39.4274 8.9469,-4.7372 31.2875,-5.6027 42.3104,-1.6391 6.8958,2.4796 7.8567,3.3841 8.2767,7.7926 0.3676,3.8524 -0.4794,5.7532 -3.7209,8.3536 -2.3084,1.8515 -5.7593,3.3663 -7.6692,3.3663 -3.9011,0 -13.1372,-5.8701 -20.5255,-13.0453 -5.682,-5.5182 -9.4748,-5.1344 -16.6823,1.6881 -15.1495,14.3403 -14.3015,42.3699 1.6885,55.8107 12.9335,10.8717 35.3095,9.463 46.2859,-2.9138 3.7025,-4.1749 5.6092,-4.2685 5.6092,-0.2753 0,4.3716 -13.5273,17.9371 -21.8441,21.9056 -8.568,4.0883 -18.802,5.395 -27.8568,3.5568 z m -231.1556,-2.5569 c 0,-0.5874 1.2287,-2.452 2.7305,-4.1436 2.4037,-2.7075 2.7306,-6.7836 2.7306,-34.0646 0,-27.6764 -0.2921,-31.2068 -2.7306,-33.0265 -4.812,-3.5906 -2.9364,-6.3555 7.3511,-10.8358 13.6176,-5.9308 14.8833,-5.774 14.8833,1.8441 v 6.2197 l 11.7864,-6.2197 c 9.8619,-5.2043 13.3138,-6.2199 21.1416,-6.2199 14.7102,0 23.3361,6.2791 26.2306,19.0941 0.8897,3.9381 1.6346,19.0427 1.6555,33.5657 0.035,24.3573 0.2804,26.6289 3.1588,29.2855 1.7164,1.584 3.1207,3.485 3.1207,4.2245 0,0.7396 -7.3726,1.3446 -16.3832,1.3446 -9.0108,0 -16.3835,-0.5569 -16.3835,-1.2376 0,-0.6806 1.342,-2.4092 2.982,-3.8413 3.8897,-3.3963 5.4832,-18.2845 4.468,-41.7448 -0.8799,-20.3361 -3.2237,-26.7164 -11.2477,-30.6184 -6.6683,-3.2428 -13.6363,-1.9733 -23.2323,4.2326 l -7.2969,4.7191 v 29.2571 c 0,26.8478 0.257,29.5903 3.1205,33.3028 1.7166,2.2251 3.1208,4.4697 3.1208,4.9881 0,0.5183 -7.0216,0.9424 -15.6031,0.9424 -8.5816,0 -15.6031,-0.4806 -15.6031,-1.0681 z m 159.1522,0 c 0,-0.5874 1.2287,-2.452 2.7304,-4.1436 2.4038,-2.7075 2.7306,-6.7836 2.7306,-34.0646 0,-27.6764 -0.2921,-31.2068 -2.7306,-33.0265 -4.8118,-3.5906 -2.9363,-6.3555 7.3511,-10.8358 16.13,-7.0251 14.8834,-9.9063 14.8834,34.3933 0,36.3598 0.1931,39.0206 3.1207,42.8148 1.7163,2.2251 3.1205,4.4697 3.1205,4.9881 0,0.5183 -7.0213,0.9424 -15.603,0.9424 -8.5818,0 -15.6031,-0.4806 -15.6031,-1.0681 z m 6.7119,-93.6085 c -4.6,-3.2856 -5.9195,-10.5758 -2.9681,-16.3964 3.9716,-7.8318 12.7311,-9.1112 18.9516,-2.768 10.6197,10.8299 -3.668,27.9611 -15.9835,19.1644 z"
           id="path1-7-9-4" />
        <path
           style="fill:#000000;fill-opacity:1;stroke:#ffffff;stroke-width:2.916;stroke-dasharray:none;stroke-opacity:1"
           d="m 2504.0997,1510.4535 v -2.3978 l 1.3269,-0.1056 c 6.4117,-0.5106 9.6272,-1.9609 10.8266,-4.8831 0.9029,-2.2002 0.8236,-4.9323 -0.2596,-8.9328 -0.9619,-3.5529 -2.3741,-7.1121 -5.2389,-13.204 l -1.5423,-3.28 -2.2568,-1.2695 c -4.2221,-2.3753 -9.4309,-4.766 -13.1525,-6.0367 -3.6714,-1.2536 -9.0526,-2.4367 -14.0157,-3.0815 -1.9813,-0.2574 -3.5378,-0.3489 -6.1424,-0.361 l -3.4887,-0.016 -0.5904,1.4047 c -1.5168,3.6085 -8.2645,19.9813 -9.2979,22.5604 -2.041,5.094 -2.8902,8.4032 -2.6391,10.2844 0.1478,1.108 0.6677,2.3993 1.3129,3.2609 0.5646,0.7541 2.2339,1.9465 3.3305,2.3791 1.4635,0.5774 5.9641,1.2379 8.4341,1.2379 h 1.034 v 2.1071 2.1072 h -20.888 -20.8881 v -2.1072 -2.1071 h 1.8406 c 6.7477,-0.01 10.8672,-1.1424 14.9152,-4.1147 2.1692,-1.5928 4.8551,-4.944 6.1349,-7.6545 0.7009,-1.4843 6.2039,-14.7916 11.0104,-26.6253 1.8654,-4.5927 7.2013,-17.5865 11.8576,-28.8751 4.6562,-11.2886 11.6156,-28.1709 15.4653,-37.5162 l 6.9995,-16.9915 2.0932,0.063 c 1.1513,0.035 2.1342,0.1009 2.1842,0.1466 0.05,0.046 1.6011,3.8002 3.4466,8.3434 3.0458,7.4983 5.7019,14.1044 15.6213,38.8525 11.3424,28.2984 17.8343,43.892 24.2048,58.1404 2.0156,4.5081 2.8927,6.1434 4.3005,8.0183 3.2355,4.3087 7.3572,6.8584 12.6512,7.826 2.2731,0.4155 2.1909,0.3041 2.1909,2.9672 v 2.2596 h -30.3904 -30.3904 z m 2.2331,-39.5493 c -1.5188,-3.8782 -8.2821,-20.3262 -17.6514,-42.9271 -0.6861,-1.6551 -1.3011,-2.9545 -1.3666,-2.8875 -0.065,0.067 -3.262,7.7776 -7.1034,17.1347 -6.1769,15.0463 -7.5761,18.3759 -8.7069,20.7198 l -0.2824,0.5853 2.0142,1e-4 c 6.9252,3e-4 15.7501,1.6366 23.33,4.3253 2.5009,0.8871 7.427,3.0757 8.9887,3.9937 0.6592,0.3874 1.2517,0.711 1.3167,0.719 0.065,0.01 -0.1775,-0.7404 -0.5389,-1.6633 z"
           id="path1-13-3-0" />
      </g>
      <g
         id="g12">
        <path
           style="fill:#000000;stroke:#ffffff;stroke-width:3.61801;stroke-dasharray:none;stroke-opacity:1"
           d="m 2559.6606,975.00192 9.9308,-33.1923 3.2269,1.7739 c 1.7748,0.9757 12.2249,6.4792 23.2225,12.2301 10.9973,5.7509 28.3087,14.8406 38.4697,20.1993 l 18.4744,9.7432 -7.7211,26.82898 -7.7213,26.829 -43.9062,-15.6099 -43.9064,-15.6099 z m 170.3204,37.43878 c -2.4595,-1.3438 -17.2905,-9.1599 -32.9576,-17.36908 -15.6672,-8.2094 -30.9516,-16.2484 -33.9655,-17.8649 -3.0137,-1.6163 -18.0729,-9.5393 -33.4645,-17.6067 -61.0439,-31.9953 -98.2889,-51.5587 -105.4121,-55.3689 -4.1114,-2.1991 -12.1321,-6.4092 -17.8239,-9.3558 l -10.3488,-5.3575 1.4608,-2.4287 c 0.8034,-1.3358 4.3511,-7.6863 7.8844,-14.1119 3.5331,-6.4256 7.2253,-13.1318 8.2051,-14.9025 2.0327,-3.6736 1.2061,-3.8652 15.2798,3.5388 4.6702,2.457 21.3113,11.1782 36.9804,19.3806 15.6693,8.2024 30.9555,16.2358 33.9694,17.852 5.8153,3.1182 42.3013,22.2591 90.9396,47.7074 16.22,8.4868 31.4998,16.5417 33.9548,17.9002 2.4552,1.3583 10.4836,5.5768 17.8409,9.3742 7.6823,3.9651 13.4497,7.4277 13.5474,8.1336 0.093,0.6759 -3.8439,8.4349 -8.7503,17.2422 -4.9066,8.80708 -9,16.27708 -9.0964,16.59968 -0.2155,0.7198 -2.4082,-0.1746 -8.2435,-3.3627 z"
           id="path1-1-7-6" />
        <path
           style="fill:#000000;stroke:#ffffff;stroke-width:3.61801;stroke-dasharray:none;stroke-opacity:1"
           d="m 2762.7187,266.2414 c 20.6174,-10.77887 21.7938,-11.64251 20.6306,-15.14442 -1.4291,-4.30086 0.055,-11.43828 3.0949,-14.89049 6.1021,-6.9294 15.4277,-8.21751 21.967,-3.03451 3.2283,2.55898 3.5853,3.34393 6.8056,14.96983 1.8689,6.74814 6.8896,21.27367 11.1564,32.27896 15.6215,40.28931 16.0461,53.89778 1.8876,60.45816 -7.4296,3.43577 -11.9552,2.08296 -17.3792,-5.21534 l -4.1506,-5.58496 -16.1453,7.22901 c -8.8801,3.97598 -16.3112,7.12935 -16.5134,7.00749 -0.2027,-0.12174 -6.0058,-16.08301 -12.8964,-35.46945 l -12.5278,-35.24806 z"
           id="path1-23-2-6" />
        <g
           id="g5-4"
           transform="matrix(0.96953838,0.43966557,-0.40332818,1.0568878,1597.8205,-855.71215)"
           style="stroke:#ffffff;stroke-width:5;stroke-dasharray:none;stroke-opacity:1">
          <rect
             style="fill:#ffffff;fill-opacity:1;stroke:#ffffff;stroke-width:5;stroke-dasharray:none;stroke-opacity:1"
             id="rect3-9"
             width="76.986626"
             height="114.78262"
             x="1711.4604"
             y="726.87531" />
          <path
             style="fill:#000000;stroke:#ffffff;stroke-width:5;stroke-dasharray:none;stroke-opacity:1"
             d="m 1635.4031,1250.4019 c -22.0685,-4.0102 -40.1765,-11.2418 -56.8727,-22.7126 -21.1772,-14.5493 -38.5034,-35.5526 -48.2386,-58.4761 -3.1849,-7.4999 -5.2745,-13.59 -5.2745,-15.3732 0,-2.9392 0.7499,-3.1267 12.5094,-3.1267 h 10.376 l 1.3366,3.4838 c 1.8094,4.7157 6.6051,14.2768 9.0896,18.1218 8.576,13.2723 21.8225,23.5213 36.6157,28.3303 17.6043,5.7228 41.0093,5.6423 58.5288,-0.201 13.3166,-4.4416 24.6962,-12.6946 33.1851,-24.0673 8.706,-11.6636 12.7148,-21.1936 17.3383,-41.218 l 1.9816,-8.5827 0.3072,-191.91216 0.3071,-191.91231 h -20.4768 -20.4767 v -10.81159 -10.8116 h 85.429 85.429 v 10.8116 10.81159 h -20.5578 -20.5578 l -0.3195,86.57259 c -0.1758,47.61492 -0.3277,124.21502 -0.3378,170.22262 -0.019,85.11246 -0.4572,126.43386 -1.4337,135.06506 -0.299,2.6429 -1.2888,7.7244 -2.1995,11.2922 -5.2887,20.7194 -13.8357,38.3095 -26.2183,53.9585 -4.6735,5.9062 -15.8577,17.1804 -21.4836,21.6562 -19.3932,15.4286 -40.1946,24.6564 -64.7917,28.7425 -4.9849,0.828 -8.5958,1.0232 -21.3572,1.1552 -14.5937,0.1507 -15.6805,0.1007 -21.8372,-1.0187 z m 124.9263,-451.66085 c 8.9983,-2.34658 18.6023,-10.16928 22.8229,-18.58993 2.924,-5.8337 3.9418,-10.40888 3.9361,-17.69425 -0.01,-6.36494 -0.5353,-9.26145 -2.6491,-14.47001 -1.7944,-4.42132 -3.7332,-7.16124 -7.8381,-11.0772 -4.1827,-3.99016 -7.7372,-6.47744 -12.4525,-8.71371 l -3.2418,-1.53748 -9.5987,9.1e-4 c -8.7392,6e-4 -9.882,0.0988 -12.761,1.09456 -8.8336,3.05507 -18.0693,11.90362 -21.4823,20.58161 -2.5841,6.57078 -3.2802,17.53085 -1.5448,24.3244 3.1256,12.23569 14.4156,23.56927 25.9493,26.04941 4.3101,0.92681 15.3564,0.94538 18.86,0.0317 z m -14.9903,-1.76706 c -6.177,-0.88355 -13.4154,-4.69299 -18.3999,-9.68347 -3.3055,-3.3094 -5.1856,-6.02966 -7.452,-10.78138 l -1.7747,-3.72118 v -10.12705 -10.12706 l 2.0166,-4.04814 c 3.7145,-7.45616 9.4258,-13.20404 16.701,-16.80793 4.6751,-2.31589 7.4021,-2.85699 14.3981,-2.85699 7.1886,0 9.7123,0.53395 15.1168,3.19837 8.5996,4.23953 15.3612,12.6423 17.7741,22.08792 1.1519,4.50921 1.2579,12.48601 0.2241,16.87533 -1.9968,8.47949 -7.4566,16.067 -15.173,21.08633 -4.1651,2.70927 -7.4421,3.97329 -12.4227,4.79174 -4.5281,0.7441 -6.4606,0.76403 -11.0084,0.11351 z m 12.5973,-26.18054 c 1.0911,-0.76776 2.6343,-2.32251 3.4292,-3.455 1.2233,-1.74254 1.4729,-2.60254 1.6238,-5.59476 0.1581,-3.13549 0.03,-3.80968 -1.1375,-5.9562 -3.4719,-6.38668 -12.3788,-7.87223 -18.0516,-3.01072 -2.5572,2.19144 -3.7467,4.84078 -3.7601,8.37413 -0.02,5.4164 2.8034,9.22197 8.1453,10.97661 0.6616,0.21732 2.6799,0.32015 4.485,0.22852 2.6878,-0.13644 3.6414,-0.41941 5.2659,-1.56258 z m -10.9477,-2.06178 c -5.6965,-2.91879 -6.0194,-11.23011 -0.5764,-14.83565 1.6375,-1.08467 2.4485,-1.28425 5.1012,-1.25529 3.7311,0.0407 5.665,0.91237 7.5688,3.4114 1.1874,1.55854 1.3447,2.17288 1.3447,5.25094 0,3.76705 -0.6314,5.13246 -3.2936,7.12245 -1.9611,1.46597 -7.5518,1.63467 -10.1447,0.30615 z"
             id="path1-12-6" />
        </g>
        <path
           style="fill:#000000;fill-opacity:1;stroke:#ffffff;stroke-width:3.59938;stroke-dasharray:none;stroke-opacity:1"
           d="m 2738.5467,712.74256 v -8.43386 l 3.9229,-0.37166 c 18.9557,-1.79585 28.462,-6.89708 32.0079,-17.17596 2.6696,-7.73894 2.4349,-17.34872 -0.7673,-31.42027 -2.844,-12.49698 -7.0189,-25.01624 -15.4885,-46.44416 l -4.5599,-11.53724 -6.6718,-4.46545 c -12.4825,-8.35482 -27.8819,-16.76375 -38.8847,-21.23346 -10.8541,-4.40928 -26.7633,-8.57078 -41.4364,-10.83884 -5.8577,-0.90549 -10.4592,-1.2273 -18.1598,-1.27011 l -10.3139,-0.0571 -1.7457,4.94104 c -4.4841,12.69287 -24.4334,70.28306 -27.4884,79.35481 -6.0342,17.91766 -8.5447,29.55737 -7.8025,36.17445 0.437,3.89747 1.9741,8.43922 3.8815,11.46995 1.6693,2.65236 6.6045,6.84667 9.8465,8.36833 4.3268,2.03082 17.6325,4.3544 24.9348,4.3544 h 3.057 v 7.41159 7.41157 h -61.7541 -61.7541 v -7.41157 -7.41159 l 5.4414,-0.006 c 19.9492,-0.021 32.1283,-4.01821 44.096,-14.47336 6.413,-5.60235 14.3538,-17.39008 18.1375,-26.92387 2.072,-5.22108 18.3412,-52.02842 32.5513,-93.65251 5.515,-16.1545 21.2903,-61.85921 35.0562,-101.56607 13.7659,-39.70683 34.3409,-99.0891 45.7224,-131.9606 l 20.6935,-59.76635 6.1883,0.22347 c 3.4037,0.1229 6.3096,0.35489 6.4576,0.51552 0.1482,0.16066 4.7334,13.36705 10.1894,29.34758 9.0048,26.37448 16.8574,49.61108 46.1834,136.66063 33.5331,99.53764 52.7259,154.3867 71.5601,204.50464 5.959,15.85677 8.552,21.60902 12.7141,28.20355 9.5654,15.15552 21.7509,24.1239 37.4025,27.52762 6.7203,1.46145 6.4771,1.06959 6.4771,10.43668 v 7.94791 h -89.8471 -89.8472 z m 6.6018,-139.11142 c -4.4901,-13.64132 -24.4854,-71.49617 -52.1851,-150.99316 -2.0285,-5.82173 -3.8466,-10.39218 -4.0403,-10.15658 -0.1937,0.23555 -9.644,27.35705 -21.0007,60.26995 -18.2617,52.92429 -22.3983,64.63608 -25.7413,72.88048 l -0.8349,2.0588 5.9546,4.3e-4 c 20.474,10e-4 46.5642,5.7564 68.9739,15.21383 7.3935,3.12023 21.9572,10.81863 26.5745,14.04746 1.9488,1.36272 3.7004,2.50083 3.8926,2.52914 0.1922,0.0284 -0.5248,-2.60435 -1.5933,-5.85035 z"
           id="path1-13-3" />
        <path
           style="fill:#000000;stroke:#ffffff;stroke-width:3.61801;stroke-dasharray:none;stroke-opacity:1"
           d="m 2576.5636,805.53472 c -5.2994,-0.9682 -8.6859,-2.9039 -10.4297,-5.9621 -1.1589,-2.0323 -1.2602,-4.5497 -0.7985,-19.8523 0.2911,-9.63861 0.7447,-20.57568 1.0083,-24.30451 l 0.4794,-6.77978 h 15.7377 15.7378 l 0.5663,3.4675 c 0.6152,3.76844 -0.1506,38.29299 -1.0092,45.49019 -0.6153,5.1584 -2.6124,6.8563 -9.0321,7.6797 -2.134,0.2736 -4.7955,0.6216 -5.9146,0.7732 -1.119,0.1516 -3.9744,-0.079 -6.3454,-0.5119 z m 52.7694,-12.9083 c -2.5935,-2.9798 -4.5123,-8.1082 -8.5867,-22.94971 -2.118,-7.71487 -4.5469,-15.60511 -5.3973,-17.53392 l -1.5464,-3.50676 h 17.3966 17.3964 l 3.2943,8.18248 c 6.3168,15.68914 7.5191,24.63581 3.8738,28.82441 -2.4544,2.82 -7.187,5.227 -14.3088,7.2771 -7.0443,2.0279 -10.1675,1.9523 -12.1219,-0.2936 z m -111.1052,-3.729 c -4.5556,-2.259 -8.1884,-4.7591 -9.654,-6.644 -2.0957,-2.6949 -2.3092,-3.539 -1.9725,-7.7993 0.3653,-4.61726 5.312,-20.34841 7.7512,-24.64913 1.1773,-2.0759 1.4312,-2.10406 18.9686,-2.10406 h 17.7749 l -2.395,6.46705 c -1.3173,3.55679 -3.6529,10.4595 -5.1901,15.3392 -3.7444,11.88504 -6.9099,19.13004 -9.304,21.29394 -3.0586,2.7643 -7.6746,2.2144 -15.9791,-1.9037 z M 2633.928,735.9216 c -0.084,-0.071 -27.2168,-0.36 -60.2952,-0.64182 -57.4838,-0.48959 -60.2362,-0.59101 -62.2603,-2.29442 -3.3624,-2.82968 -4.9637,-7.435 -4.9637,-14.27373 0,-7.6162 1.753,-11.86278 6.1014,-14.78082 l 3.2554,-2.18453 67.8239,0.5878 c 37.3032,0.32326 68.6165,0.93601 69.5851,1.36172 6.4623,2.84044 9.4836,17.09287 5.5173,26.02627 -2.6242,5.91039 -5.0632,6.93843 -15.6759,6.6075 -4.9143,-0.15316 -9.0039,-0.33677 -9.088,-0.40797 z"
           id="path1-2-9-7" />
        <path
           style="fill:#000000;stroke:#ffffff;stroke-width:3.658;stroke-dasharray:none;stroke-opacity:1"
           d="m 3168.8316,664.82176 c -0.4086,-0.78419 -1.7533,-5.99332 -2.9885,-11.57584 -3.4691,-15.67998 -13.2898,-46.64348 -20.297,-63.99474 -7.6344,-18.90481 -24.5457,-48.96443 -34.091,-60.59733 -14.8607,-18.11091 -34.0591,-33.99177 -49.8115,-41.20419 l -6.2146,-2.84527 -31.9263,16.82623 c -34.9274,18.40791 -36.9041,19.0372 -46.3692,14.7616 -5.5732,-2.5176 -6.5356,-4.41024 -26.9681,-53.02876 -9.1249,-21.71244 -17.9833,-42.15005 -19.6848,-45.41694 -3.615,-6.9399 -2.1963,-7.03947 -23.8218,1.67263 -7.9747,3.21266 -15.6381,5.96713 -17.0299,6.12102 -1.4502,0.16047 -3.8601,-1.49843 -5.6449,-3.88532 -1.713,-2.29089 -4.2129,-5.56608 -5.5557,-7.27813 -2.1189,-2.70175 -1.8245,-5.041 2.2303,-17.713 2.5693,-8.03008 5.2934,-18.46964 6.0532,-23.19899 1.6233,-10.10471 -0.485,-34.79696 -5.4861,-64.24214 -14.0414,-82.67585 -14.6459,-143.64667 -1.805,-182.08213 5.0853,-15.22108 19.0066,-34.0419 28.7883,-38.91996 4.9686,-2.47784 19.1306,-3.56215 26.0117,-1.99167 l 6.2738,1.43201 -9.1384,3.81134 c -18.0755,7.53843 -31.2786,22.72517 -38.0055,43.71486 -5.8846,18.36189 -7.6904,38.33396 -6.8604,75.87092 0.7024,31.74142 3.5082,58.84869 9.3053,89.89356 4.0166,21.51065 7.7195,56.32144 7.2409,68.07019 -0.1986,4.87271 -2.387,15.6566 -4.8626,23.96429 l -4.5015,15.10486 18.0303,-7.3044 c 9.9165,-4.0174 19.2882,-7.2868 20.8263,-7.26536 1.5376,0.0215 3.8087,1.17823 5.0466,2.57061 1.2379,1.39228 10.2141,21.43606 19.9473,44.54166 28.4978,67.6518 26.5282,63.47922 29.378,62.23621 1.352,-0.58981 18.1911,-9.30861 37.4201,-19.37504 19.2289,-10.06659 50.9275,-25.9746 70.4414,-35.35135 l 35.4794,-17.04845 -2.2652,4.48887 c -1.2458,2.46889 1.4161,4.81127 -0.1394,6.55271 l -5.2033,5.82792 23.0127,26.05078 c 12.6571,14.32801 38.2538,43.4304 56.8817,64.67208 18.6279,21.24162 36.9994,42.16388 40.8255,46.49383 3.8258,4.33003 6.6806,8.32944 6.3438,8.88764 -0.337,0.55822 -18.1734,16.48146 -39.6367,35.38498 -21.4632,18.90361 -39.3532,34.91554 -39.7555,35.58208 -0.4023,0.66663 -1.0658,0.5704 -1.4741,-0.2138 z m 22.8164,-40.09335 c 15.3208,-12.91008 18.0057,-15.76983 16.8677,-17.96725 -0.5678,-1.08979 -8.7866,-10.77995 -18.2701,-21.53059 -9.4836,-10.75073 -33.1612,-37.6435 -52.6169,-59.76178 -19.4559,-22.11823 -36.9099,-41.91148 -38.787,-43.98489 -1.8772,-2.07336 -5.2789,-5.82932 -7.5595,-8.34636 l -4.1465,-4.57656 -6.6375,3.40863 -6.6377,3.40872 15.5943,11.32062 c 24.7372,17.958 41.23,37.96118 58.2655,70.6673 10.1621,19.50949 18.3636,40.11724 25.0278,62.88488 5.0941,17.40419 4.8323,16.86516 7.1143,14.6472 1.0154,-0.98696 6.319,-5.56342 11.7856,-10.16992 z m 35.042,-30.601 c 0.978,-0.5022 1.2863,-1.85733 0.6852,-3.01136 -0.6011,-1.15404 -11.4758,-13.85295 -24.1658,-28.21996 -12.69,-14.36691 -38.1454,-43.23266 -56.5677,-64.14611 -18.4219,-20.91346 -34.2857,-38.86073 -35.2527,-39.88281 -1.927,-2.037 -9.6355,0.91218 -8.4305,3.22547 0.3746,0.71913 19.9386,23.15649 43.4758,49.86077 23.5369,26.70433 50.2131,56.98015 59.2802,67.27955 12.1691,13.82355 16.8401,18.34427 17.8412,17.26696 0.746,-0.80266 2.1565,-1.87029 3.1343,-2.37251 z M 3112.779,430.45559 c 0.3681,-0.88683 2.9939,-6.8045 5.8346,-13.1503 5.3526,-11.95726 15.2775,-43.124 18.9285,-59.4406 l 2.0942,-9.35929 2.5051,-5.23984 c 2.278,-4.76545 14.8388,-3.21921 15.0638,-2.78739 0.8249,1.5834 -6.4321,28.91727 -14.3663,54.11318 l -8.1504,25.88115 -4.3121,5.17958 c -4.454,5.34993 -17.9658,5.69036 -17.5974,4.80351 z m -5.6113,-111.29437 c -10.1876,2.33412 -21.8838,2.2245 -23.1555,-0.21697 -0.2628,-0.50451 1.0972,-10.2198 3.0219,-21.58947 1.925,-11.36968 3.3217,-21.04374 3.1039,-21.49793 -0.2167,-0.45457 -2.4649,-0.53222 -4.9937,-0.17361 -12.614,1.78917 -41.2806,-4.85017 -58.622,-13.57702 -13.4721,-6.77967 -29.2988,-19.13015 -37.6107,-29.34978 -9.0669,-11.14774 -23.3349,-40.21059 -26.0372,-53.03573 -4.9747,-23.61084 -1.143,-53.51343 9.8804,-77.10477 l 2.5541,-5.46546 -5.0515,-3.00589 c -4.7784,-2.84333 -4.9613,-3.12857 -3.3812,-5.27467 0.919,-1.24786 4.6824,-4.72423 8.3633,-7.72529 3.6809,-3.00104 8.2017,-6.89338 10.0466,-8.64968 3.9074,-3.71991 25.6721,-15.24335 33.5022,-17.73787 7.2459,-2.30847 27.3722,-5.63549 34.6219,-5.72324 8.686,-0.10528 11.0799,2.08262 11.6026,10.60534 0.2385,3.88292 0.667,7.50818 0.9525,8.05624 0.2855,0.54808 5.1148,1.30992 10.7318,1.69302 20.3824,1.38995 53.169,15.22501 65.1534,27.49312 2.117,2.16714 4.3027,3.70737 4.8568,3.42287 0.5542,-0.28459 4.64,-4.11997 9.08,-8.52314 9.5761,-9.497 11.7383,-9.89491 19.465,-3.58217 13.8877,11.34644 25.826,28.55708 31.873,45.94839 10.0762,28.97951 8.9745,60.423 -3.0433,86.85801 -5.0862,11.18781 -8.2934,12.42063 -19.4473,7.47515 l -8.9404,-3.96408 -4.286,9.09534 c -2.3571,5.00246 -5.8347,11.12482 -7.7279,13.60526 -1.8934,2.48053 -3.0877,5.19088 -2.6543,6.0231 0.4336,0.83223 3.6426,3.71096 7.1313,6.39723 3.4887,2.68617 6.6298,6.14847 6.9801,7.69387 1.1854,5.22463 -13.4364,22.14342 -29.0127,33.57067 -11.474,8.41766 -26.2691,15.35205 -38.9571,18.25907 z m 31.8014,-32.49055 c 9.8115,-7.66465 17.0393,-15.62521 15.9778,-17.5977 -0.4229,-0.77345 -1.6519,-1.92894 -2.7429,-2.56182 -1.6707,-0.96956 -3.6564,0.13663 -12.6058,7.02287 -5.898,4.53832 -16.2647,11.01824 -23.3078,14.56918 -12.5883,6.34668 -12.6913,6.43365 -13.494,11.39423 l -0.8088,4.99869 7.1708,-2.1777 c 10.7221,-3.25627 20.5561,-8.41812 29.8107,-15.64775 z m -5.3906,-28.34099 c 14.4528,-12.67843 23.2226,-26.5828 28.7152,-45.52731 5.8936,-20.32766 5.9511,-40.61233 0.1641,-57.8382 -4.4578,-13.2683 -16.6137,-33.58163 -24.5724,-41.06211 -26.6789,-25.07547 -64.8616,-35.37422 -97.9531,-26.42013 -8.9736,2.42818 -31.0747,13.71041 -37.8255,19.30939 -9.9352,8.23969 -20.7931,22.23612 -23.2999,30.03458 -8.3231,25.89104 3.6474,66.96645 26.3523,90.42496 21.1079,21.80887 48.8803,33.10877 79.9176,32.5167 7.2978,-0.13909 14.3401,-0.25632 15.6489,-0.26033 3.3652,-0.01 6.7842,5.6042 6.2931,10.33427 -0.2284,2.20029 -0.2591,4.30023 -0.068,4.66667 0.8818,1.6931 18.3625,-8.92758 26.6281,-16.17846 z m -53.2916,-4.82053 c -17.7693,3.65247 -38.2196,-0.49938 -53.9011,-10.94308 -10.0811,-6.71385 -16.5188,-14.09993 -22.8007,-26.15976 -9.6282,-18.48391 -10.9579,-34.63467 -4.4751,-54.35255 15.3408,-46.66001 70.3711,-63.20755 110.4823,-33.22189 l 10.635,7.95032 8.1056,15.56078 c 7.9042,15.17388 8.1176,15.8469 8.5607,27.08145 0.7689,19.46823 -5.7072,38.76104 -17.3927,51.81498 -7.4089,8.27641 -27.9848,19.96158 -39.214,22.26975 z m 30.3243,-36.55144 c 7.342,-9.6855 11.205,-22.26428 10.9258,-35.57557 -0.1677,-8.01539 -0.8534,-10.16604 -6.9952,-21.95678 -6.2213,-11.94311 -7.4629,-13.55216 -14.3877,-18.64628 -9.1047,-6.69778 -23.5233,-11.43965 -35.5879,-11.70354 -8.371,-0.18311 -9.607,0.20009 -23.259,7.21091 -14.0384,7.20931 -14.568,7.62354 -20.1131,15.72949 -6.7416,9.85524 -10.7403,23.58313 -10.3099,35.3961 0.2726,7.48555 1.1362,10.10453 7.1189,21.58997 6.0177,11.55237 7.624,13.69288 13.8242,18.42296 12.3788,9.44326 28.9205,13.61937 44.144,11.14459 3.9065,-0.63507 10.2473,-3.26637 17.2665,-7.16508 9.5197,-5.28772 11.9835,-7.33639 17.3734,-14.44677 z m -34.7217,2.554 c -19.6346,5.01838 -35.1752,-2.60923 -43.2291,-21.21735 -4.8405,-11.18316 -4.4927,-21.0334 1.1099,-31.42971 10.0373,-18.62617 32.6041,-24.77753 51.409,-14.01329 6.3002,3.60622 8.2799,5.64072 12.5234,12.86886 5.5596,9.46954 6.7089,15.5971 4.8709,25.96368 -2.259,12.73928 -13.4952,24.45692 -26.6841,27.82781 z m 8.5444,-24.1038 c 5.6645,-9.25774 3.0069,-22.42477 -5.7724,-28.59839 -13.9601,-9.81688 -33.8549,0.40003 -33.8538,17.38531 5e-4,6.44342 4.6753,14.72449 10.1906,18.05146 9.8281,5.92873 23.5782,2.73434 29.4356,-6.83838 z m 113.9334,-23.04724 c -0.2295,-7.11567 -1.2308,-16.65408 -2.225,-21.19646 -2.4607,-11.24043 -15.1334,-35.54544 -22.5975,-43.33951 -3.0642,-3.19997 -5.7375,-5.73297 -5.9405,-5.62884 -0.2024,0.10415 -2.4264,2.31742 -4.9416,4.91857 l -4.5733,4.72932 10.2071,19.59562 c 9.5265,18.28843 10.335,20.42478 12.1206,32.02496 2.2192,14.41588 2.4603,23.02716 0.9958,35.54375 -0.5779,4.9401 -0.8277,9.41037 -0.5551,9.93393 0.2727,0.52353 2.5535,1.88136 5.0683,3.01743 l 4.5727,2.06547 4.1429,-14.36333 c 3.0133,-10.44695 4.0293,-17.891 3.7259,-27.30097 z M 3049.425,67.03062 c -0.9548,-1.20246 -5.0493,-1.61498 -10.5821,-1.06609 -10.0381,0.99588 -29.9962,9.19258 -41.5361,17.05865 -5.9985,4.08899 -6.37,4.67454 -4.7223,7.44293 1.5357,2.57816 2.1749,2.66463 4.5125,0.60707 5.98,-5.26383 30.2779,-16.40245 40.4085,-18.52407 12.8346,-2.68784 13.8087,-3.13895 11.9195,-5.51849 z M 2937.3763,304.3791 c -11.3291,-1.03545 -18.1344,-6.81715 -21.0653,-17.89716 -2.9395,-11.11234 1.4265,-19.67766 13.081,-25.66277 18.236,-9.365 47.2363,-1.44626 48.4909,13.24091 0.6593,7.71886 -5.0366,13.83266 -21.331,22.89545 -12.3689,6.87942 -14.8058,7.82292 -19.1756,7.42357 z m 21.5622,-26.60955 c 3.5406,-3.20391 1.3549,-4.4909 -8.7443,-5.1486 -8.4639,-0.55116 -14.8943,1.30213 -18.5068,5.33366 -1.6091,1.79607 1.8651,10.61622 4.5115,11.45231 1.5869,0.50139 19.3983,-8.6138 22.7396,-11.63729 z m 0.1942,-29.24765 c -13.9465,-0.3811 -22.8339,1.2103 -37.2055,6.6621 -8.8274,3.34861 -11.8971,3.91074 -14.7304,2.6977 -4.6823,-2.00464 -5.6582,-4.1259 -4.1145,-8.94283 1.1391,-3.55418 2.2129,-4.33049 10.6784,-7.71931 13.3317,-5.33679 24.455,-7.68603 39.1855,-8.27615 13.1689,-0.52754 21.6834,1.09297 23.4376,4.46068 1.3902,2.66909 -0.9435,9.27509 -3.6929,10.45247 -1.2506,0.53551 -7.3518,0.83494 -13.5582,0.66534 z"
           id="path1-4"
           />
        <g
           id="g5-4-5"
           transform="matrix(1.742662,0.03164989,0.08228705,2.0074425,427.87654,-129.93335)"
           style="stroke:#ffffff;stroke-width:2.71989;stroke-dasharray:none;stroke-opacity:1">
          <path
             d="m 1572.2525,719.74475 -0.1072,2.24391 -0.1073,2.2439 5.2852,0.16197 5.2837,0.16299 -1.98,39.8236 -1.9813,39.82362 -0.5953,1.76494 c -1.3916,4.11879 -2.5209,6.06499 -4.8831,8.41632 -2.3034,2.29269 -5.322,3.91459 -8.8026,4.73059 -4.5791,1.07351 -10.6204,0.90451 -15.1067,-0.42286 -3.77,-1.11542 -7.0864,-3.34792 -9.1681,-6.1703 -0.603,-0.81765 -1.7457,-2.83963 -2.1659,-3.83259 l -0.3109,-0.73297 -2.6771,-0.0829 c -3.0348,-0.0934 -3.2303,-0.0601 -3.2595,0.54988 -0.018,0.37005 0.4606,1.6503 1.2082,3.23196 2.2853,4.83442 6.5487,9.33099 11.8696,12.5184 4.1951,2.51299 8.7962,4.15747 14.4516,5.1649 1.5777,0.28117 1.8588,0.29956 5.6264,0.38417 3.2946,0.0739 4.2285,0.0619 5.5231,-0.0703 6.3882,-0.65267 11.847,-2.40222 17.0046,-5.45001 1.4962,-0.88417 4.4945,-3.13448 5.7592,-4.32303 3.3505,-3.1492 5.7297,-6.7325 7.2998,-10.99021 0.2703,-0.73318 0.5765,-1.77976 0.6799,-2.32584 0.3374,-1.78341 0.8594,-10.35463 1.7075,-28.01715 0.4584,-9.54749 1.2568,-25.4424 1.7738,-35.32213 l 0.9403,-17.96336 5.3053,0.16363 5.3052,0.16264 0.1071,-2.24292 0.1072,-2.2439 -22.0469,-0.67893 z"
             style="stroke-width:2.71989;stroke-dasharray:none"
             id="path10" />
        </g>
        <text
           xml:space="preserve"
           style="font-style:normal;font-variant:normal;font-weight:normal;font-stretch:normal;font-size:128.487px;font-family:'Goudy Stout';-inkscape-font-specification:'Goudy Stout';text-align:start;writing-mode:lr-tb;direction:ltr;text-anchor:start;fill:#000000;fill-opacity:1;stroke:#ffffff;stroke-width:4.94005;stroke-linecap:butt;stroke-linejoin:round;stroke-miterlimit:26.4;stroke-dasharray:none;stroke-opacity:1;paint-order:stroke fill markers"
           x="3195.7339"
           y="785.42059"
           id="text12"
           transform="matrix(1.0477356,0.26044474,-0.31111172,0.87710356,0,0)"><tspan
            
             id="tspan12"
             x="3195.7339"
             y="785.42059"
             style="stroke-width:4.94005">-</tspan></text>
      </g>
    </g>
  </g>
</svg>
